<?xml version="1.0" standalone="no"?>
<!DOCTYPE svg PUBLIC "-//W3C//DTD SVG 20010904//EN"
 "http://www.w3.org/TR/2001/REC-SVG-20010904/DTD/svg10.dtd">
<svg version="1.0" xmlns="http://www.w3.org/2000/svg"
 width="225.000000pt" height="225.000000pt" viewBox="0 0 225.000000 225.000000"
 preserveAspectRatio="xMidYMid meet">

<g transform="translate(0.000000,225.000000) scale(0.100000,-0.100000)"
fill="#000000" stroke="none">
<path d="M975 2096 c-137 -22 -292 -82 -405 -159 -66 -45 -196 -173 -245 -242
-93 -131 -154 -291 -175 -458 -52 -413 180 -825 562 -1001 40 -19 84 -36 98
-38 l25 -3 3 106 3 106 -78 5 c-122 7 -206 64 -234 158 -12 38 -36 67 -103
123 -37 30 -27 47 28 47 53 0 97 -32 152 -109 45 -62 97 -91 164 -91 68 0 88
9 99 43 6 16 22 45 36 63 l25 33 -42 11 c-135 35 -210 75 -278 146 -58 62 -95
135 -111 220 -22 115 7 254 70 341 22 31 26 44 19 63 -13 34 -12 150 2 199 10
39 13 41 50 41 50 0 122 -24 184 -62 49 -30 50 -30 123 -19 95 14 233 14 342
-1 86 -11 87 -11 127 16 52 34 143 66 189 66 30 0 37 -5 46 -27 16 -42 22
-153 12 -193 -9 -31 -6 -40 20 -78 116 -172 93 -427 -51 -571 -56 -56 -135
-99 -240 -131 l-72 -22 25 -31 c43 -58 49 -85 54 -272 5 -160 8 -180 23 -183
25 -5 199 80 272 132 290 208 450 566 406 913 -21 167 -82 327 -175 458 -49
69 -179 197 -245 242 -117 79 -264 136 -410 158 -112 18 -186 18 -295 1z"/>
</g>
</svg>
